<?xml version="1.0" standalone="no"?>
<!DOCTYPE svg PUBLIC "-//W3C//DTD SVG 20010904//EN"
 "http://www.w3.org/TR/2001/REC-SVG-20010904/DTD/svg10.dtd">
<svg version="1.0" xmlns="http://www.w3.org/2000/svg"
 width="512.000000pt" height="512.000000pt" viewBox="0 0 512.000000 512.000000"
 preserveAspectRatio="xMidYMid meet">

<g transform="translate(0.000000,512.000000) scale(0.100000,-0.100000)"
fill=" #ea580c" stroke="none">
<path d="M2459 5027 c-58 -17 -124 -55 -171 -101 -139 -135 -153 -373 -32
-515 20 -23 35 -43 33 -44 -2 -1 -31 -16 -64 -32 -74 -37 -220 -179 -263 -255
-43 -77 -83 -202 -85 -267 -2 -47 1 -58 22 -74 22 -18 48 -19 661 -19 613 0
639 1 661 19 20 16 24 27 22 74 -4 122 -82 287 -186 396 -53 55 -189 151 -213
151 -21 0 -18 8 21 53 19 22 44 65 55 95 73 195 -8 401 -195 493 -74 36 -189
48 -266 26z m191 -168 c92 -42 134 -107 135 -210 0 -56 -4 -73 -30 -115 -19
-30 -49 -60 -79 -79 -42 -25 -59 -30 -116 -30 -57 0 -74 5 -116 30 -30 19 -60
49 -79 79 -53 87 -37 215 37 283 36 34 108 63 158 63 25 0 65 -10 90 -21z m22
-610 c151 -31 296 -144 363 -283 19 -40 35 -76 35 -80 0 -3 -229 -6 -510 -6
-280 0 -510 3 -510 6 0 4 16 40 35 80 103 213 350 332 587 283z"/>
<path d="M1505 4728 c-31 -17 -45 -39 -45 -73 0 -40 32 -71 83 -80 l37 -7
-105 -59 c-364 -202 -670 -508 -869 -869 -327 -590 -371 -1295 -121 -1920 25
-63 55 -123 66 -132 29 -24 84 -23 109 2 29 29 25 67 -16 162 -157 367 -201
820 -118 1218 125 599 503 1113 1029 1401 l79 43 -22 -36 c-27 -44 -28 -68 -1
-102 27 -35 86 -36 116 -3 23 25 186 255 202 286 17 31 13 58 -11 85 -20 21
-48 30 -203 60 -205 41 -184 39 -210 24z"/>
<path d="M3214 4668 c-23 -11 -44 -47 -44 -76 0 -36 32 -61 127 -97 581 -224
1026 -683 1226 -1266 77 -222 110 -429 110 -679 0 -201 -14 -319 -60 -505 -27
-108 -27 -109 -38 -74 -14 50 -42 79 -76 79 -41 0 -58 -9 -74 -40 -13 -26 -11
-45 21 -207 20 -98 42 -188 50 -200 17 -27 65 -38 96 -22 36 19 284 198 299
215 20 24 15 72 -11 99 -28 30 -64 32 -108 5 -18 -11 -34 -20 -36 -20 -2 0 4
26 14 58 54 175 84 393 83 622 0 455 -128 870 -385 1252 -250 374 -657 692
-1076 842 -80 29 -87 29 -118 14z"/>
<path d="M1354 3905 c-25 -25 -25 -27 -22 -171 3 -139 4 -147 27 -165 32 -26
77 -24 106 6 24 23 25 29 25 163 0 126 -2 142 -21 166 -28 35 -80 36 -115 1z"/>
<path d="M2365 3545 c-25 -24 -25 -25 -25 -224 0 -204 -9 -279 -40 -341 -41
-81 -127 -164 -295 -283 l-79 -57 -224 0 -224 0 -29 -29 -29 -29 0 -602 0
-602 29 -29 29 -29 219 0 219 0 54 -42 c77 -57 180 -103 280 -124 106 -21 277
-15 460 17 94 16 185 23 365 28 261 7 259 6 328 70 63 58 92 168 65 246 l-14
40 47 46 c73 72 90 144 63 269 -4 20 1 28 25 42 43 24 88 91 100 150 18 82 -4
160 -63 223 l-34 36 15 37 c38 89 10 206 -65 274 -70 63 -114 70 -401 66
l-248 -3 14 44 c19 63 17 356 -2 440 -44 184 -192 332 -376 376 -95 22 -135
20 -164 -10z m222 -184 c55 -28 108 -87 140 -156 27 -57 28 -68 31 -235 4
-198 -3 -226 -72 -309 -51 -61 -53 -78 -15 -151 74 -143 37 -259 -119 -377
-117 -87 -112 -82 -112 -123 0 -30 6 -43 26 -59 38 -30 63 -26 134 20 57 37
64 39 73 23 5 -9 24 -33 42 -53 25 -28 31 -41 24 -53 -34 -62 -27 -179 15
-240 l23 -33 -30 -53 c-24 -43 -29 -65 -29 -116 0 -34 5 -72 11 -84 6 -11 8
-23 4 -25 -5 -3 -66 -13 -138 -22 -237 -32 -368 -12 -504 75 l-61 40 0 544 0
544 68 48 c228 162 321 264 373 410 18 49 22 89 26 241 l5 182 24 -9 c13 -5
40 -18 61 -29z m823 -832 c42 -15 64 -64 49 -108 -20 -56 -43 -61 -289 -61
-246 0 -269 5 -289 61 -14 41 9 94 47 108 39 14 441 14 482 0z m-1540 -549 l0
-500 -145 0 -145 0 0 500 0 500 145 0 145 0 0 -500z m1636 196 c37 -31 38 -84
4 -121 l-23 -25 -317 0 -317 0 -23 25 c-34 37 -33 90 4 121 l27 24 309 0 309
0 27 -24z m-136 -321 c55 -28 66 -85 26 -132 l-24 -28 -208 -3 c-147 -2 -216
0 -237 9 -65 27 -68 127 -3 155 47 20 406 20 446 -1z m-79 -354 c31 -31 36
-59 17 -94 -23 -44 -35 -46 -214 -47 -168 0 -171 0 -193 24 -33 35 -31 93 4
123 25 22 34 23 191 23 l166 0 29 -29z"/>
<path d="M995 3540 c-51 -20 -65 -90 -25 -130 18 -18 33 -20 169 -20 l150 0
20 26 c29 37 26 70 -8 105 l-29 29 -129 -1 c-70 0 -137 -4 -148 -9z"/>
<path d="M1543 3540 c-34 -14 -56 -54 -48 -90 12 -53 34 -60 191 -60 158 0
179 7 190 66 5 24 0 37 -19 60 l-25 29 -134 2 c-73 1 -143 -2 -155 -7z"/>
<path d="M1393 3382 c-13 -2 -32 -15 -43 -29 -18 -23 -20 -40 -20 -155 0 -130
6 -160 39 -185 26 -20 70 -15 96 12 24 23 25 29 25 168 0 136 -1 145 -22 164
-27 24 -45 30 -75 25z"/>
<path d="M3880 3310 c-18 -18 -20 -33 -20 -169 l0 -150 26 -20 c34 -27 74 -27
102 -1 31 29 34 51 30 195 -3 119 -4 128 -27 146 -31 25 -85 25 -111 -1z"/>
<path d="M3515 2938 c-51 -30 -60 -84 -20 -123 23 -24 29 -25 168 -25 130 0
145 2 165 20 32 30 33 82 1 115 -17 18 -35 20 -157 23 -92 1 -144 -2 -157 -10z"/>
<path d="M4065 2939 c-51 -29 -61 -90 -22 -127 22 -21 33 -22 168 -22 139 0
146 1 167 23 27 29 28 77 3 108 -18 23 -26 24 -158 27 -89 1 -145 -2 -158 -9z"/>
<path d="M3905 2779 c-42 -24 -45 -38 -45 -186 0 -139 1 -145 25 -168 31 -32
66 -32 102 -1 l28 24 0 146 c0 132 -2 147 -20 165 -26 25 -65 34 -90 20z"/>
<path d="M653 1385 c-103 -32 -195 -113 -241 -213 -22 -49 -26 -71 -26 -157
-1 -92 2 -105 31 -165 18 -36 43 -76 57 -89 l25 -24 -77 -45 c-182 -106 -314
-305 -338 -505 -6 -51 -4 -58 19 -81 l26 -26 635 0 635 0 28 24 c32 28 34 67
8 168 -45 175 -176 342 -335 427 l-59 32 39 55 c53 77 74 143 73 234 -1 165
-102 306 -258 361 -64 22 -178 25 -242 4z m205 -161 c181 -75 181 -343 0 -418
-148 -62 -318 49 -318 208 1 160 170 272 318 210z m37 -616 c158 -34 307 -163
365 -316 l20 -52 -510 0 c-366 0 -510 3 -510 11 0 30 66 144 113 195 138 152
315 206 522 162z"/>
<path d="M4223 1381 c-157 -58 -255 -196 -256 -361 -1 -91 19 -157 73 -234
l39 -55 -59 -32 c-159 -85 -290 -252 -335 -427 -26 -101 -24 -140 8 -168 l28
-24 635 0 635 0 26 26 c23 23 25 30 19 81 -23 199 -158 400 -337 504 l-76 45
33 38 c56 64 78 136 78 246 0 87 -2 101 -31 161 -39 80 -111 150 -191 187 -77
35 -212 42 -289 13z m234 -166 c114 -57 155 -191 95 -306 -39 -75 -111 -119
-194 -119 -137 0 -231 92 -231 225 0 173 173 278 330 200z m53 -615 c129 -38
260 -150 320 -274 16 -35 30 -69 30 -75 0 -8 -144 -11 -510 -11 l-510 0 20 52
c80 210 303 348 535 330 28 -2 79 -12 115 -22z"/>
<path d="M1490 856 c-85 -7 -165 -17 -176 -24 -12 -6 -27 -26 -33 -43 -10 -28
-4 -43 72 -190 45 -88 90 -169 100 -180 21 -23 74 -25 104 -4 29 20 36 58 19
100 -8 19 -14 35 -12 35 2 0 41 -18 87 -39 107 -50 297 -113 419 -140 497
-107 1003 -49 1450 165 153 74 275 147 284 170 21 55 -15 114 -69 114 -16 0
-71 -25 -132 -61 -316 -184 -669 -279 -1043 -279 -293 0 -528 47 -808 162
-121 50 -139 67 -69 68 53 0 91 62 71 115 -8 21 -57 45 -86 44 -13 -1 -93 -7
-178 -13z"/>
</g>
</svg>
