<?xml version="1.0" standalone="no"?>
<!DOCTYPE svg PUBLIC "-//W3C//DTD SVG 20010904//EN"
 "http://www.w3.org/TR/2001/REC-SVG-20010904/DTD/svg10.dtd">
<svg version="1.0" xmlns="http://www.w3.org/2000/svg"
 width="512.000000pt" height="512.000000pt" viewBox="0 0 512.000000 512.000000"
 preserveAspectRatio="xMidYMid meet">

<g transform="translate(0.000000,512.000000) scale(0.100000,-0.100000)"
fill="#ea580c" stroke="none">
<path d="M3813 5106 c-81 -26 -151 -84 -189 -158 -9 -18 -37 -104 -62 -193
-68 -246 -61 -339 34 -445 21 -23 59 -53 86 -66 26 -13 48 -26 48 -28 0 -2
-31 -82 -69 -178 -145 -364 -297 -829 -416 -1275 l-28 -103 -198 0 -198 0 48
98 c101 202 158 423 168 650 5 128 4 144 -12 162 -24 26 -86 27 -108 2 -13
-14 -19 -52 -26 -153 -19 -259 -83 -476 -203 -686 l-42 -73 -266 0 -267 0 -7
73 c-24 242 -114 509 -242 713 -24 40 -44 76 -44 82 0 18 173 185 258 249 265
200 605 317 692 238 21 -19 56 -88 84 -166 38 -107 160 -78 142 33 -9 57 -66
176 -107 222 -51 58 -104 78 -208 78 -222 -2 -516 -134 -768 -346 -51 -42
-115 -102 -142 -133 l-50 -56 -97 97 c-54 54 -110 104 -126 112 -34 18 -73 10
-93 -19 -31 -45 -21 -64 113 -201 182 -187 281 -343 360 -567 35 -98 68 -244
78 -342 l7 -67 -209 0 -209 0 -188 329 c-103 181 -187 334 -187 341 0 6 25 64
55 127 30 64 55 124 55 135 0 29 -45 68 -78 68 -36 0 -55 -21 -96 -106 l-32
-68 -64 114 c-35 63 -72 122 -82 132 -24 24 -73 23 -98 -2 -40 -40 -29 -67
145 -371 91 -159 165 -291 165 -294 0 -3 -58 -5 -130 -5 -117 0 -132 -2 -150
-20 -25 -25 -26 -71 -1 -101 19 -23 25 -24 197 -29 l178 -5 68 -118 c37 -66
68 -121 68 -123 0 -2 -129 -4 -287 -4 l-288 0 -26 43 c-81 130 -161 332 -193
487 -66 325 -25 710 85 816 29 27 35 29 107 28 86 -2 197 -33 321 -90 41 -19
86 -34 101 -34 50 0 83 63 56 105 -33 50 -238 135 -390 161 -228 40 -330 -31
-409 -281 -38 -121 -51 -224 -50 -400 2 -262 59 -511 170 -737 l48 -97 -208
-3 c-206 -3 -209 -3 -228 -27 -48 -59 -4 -451 83 -745 156 -529 531 -1026 995
-1320 l91 -57 4 -107 c4 -79 11 -122 27 -164 31 -81 106 -160 189 -200 l67
-33 899 -3 c994 -3 957 -5 1060 61 108 69 161 174 172 341 l7 105 96 63 c343
225 650 567 832 929 150 299 232 612 255 972 7 120 -2 157 -42 176 -17 7 -130
11 -349 11 -179 0 -325 2 -325 6 0 3 14 62 31 132 56 236 89 384 89 406 0 57
-86 89 -124 47 -11 -12 -38 -107 -71 -248 -29 -125 -59 -253 -67 -283 l-14
-55 -357 -3 c-284 -2 -356 0 -352 10 2 7 23 81 45 163 124 456 328 1052 459
1339 50 110 37 153 -51 176 -99 25 -137 56 -159 131 -11 36 -8 55 31 202 53
203 60 218 104 252 63 48 88 45 436 -48 173 -47 352 -95 398 -107 120 -32 172
-84 172 -172 0 -47 -79 -337 -102 -376 -11 -18 -38 -42 -61 -53 -42 -22 -46
-22 -193 -3 -76 9 -86 -8 -108 -187 -10 -79 -29 -209 -42 -288 -13 -80 -24
-158 -24 -173 0 -58 73 -89 119 -50 15 12 25 40 36 97 13 68 65 414 65 430 0
3 29 5 65 5 120 0 224 59 277 156 15 27 48 128 73 224 40 148 47 185 43 240
-8 112 -79 215 -178 259 -77 34 -830 231 -880 230 -25 0 -64 -6 -87 -13z m990
-2603 c5 -8 -8 -177 -19 -250 l-6 -43 -2218 0 c-2104 0 -2219 1 -2224 18 -6
21 -26 212 -26 253 l0 29 2244 0 c1235 0 2247 -3 2249 -7z m-63 -463 c0 -32
-68 -234 -117 -350 -53 -124 -129 -262 -210 -380 l-58 -85 -830 -5 c-456 -3
-836 -9 -843 -13 -42 -27 -33 -104 14 -126 18 -8 239 -11 777 -11 l751 0 -69
-71 c-106 -108 -237 -214 -370 -300 -66 -43 -130 -85 -142 -94 -21 -15 -23
-24 -23 -108 0 -183 -30 -263 -119 -315 l-46 -27 -880 -3 c-793 -2 -884 -1
-923 14 -61 23 -101 60 -128 119 -21 44 -24 65 -24 171 0 81 -4 125 -12 136
-7 8 -57 43 -110 76 -160 99 -394 288 -458 369 l-22 28 760 5 c729 5 761 6
781 24 27 25 28 79 1 106 -20 20 -34 20 -847 20 l-828 1 -43 60 c-137 192
-257 440 -322 665 -17 56 -30 105 -30 108 0 3 983 6 2185 6 l2185 0 0 -20z"/>
<path d="M885 1862 c-157 -86 -181 -294 -47 -414 39 -35 119 -68 167 -68 48 0
128 33 167 68 114 103 116 281 4 380 -52 46 -98 62 -175 62 -53 0 -76 -6 -116
-28z m176 -132 c44 -24 63 -106 33 -148 -37 -54 -105 -63 -158 -21 -47 37 -43
129 8 164 24 17 89 20 117 5z"/>
<path d="M1675 1871 c-50 -23 -109 -84 -130 -133 -8 -21 -15 -65 -15 -98 0
-103 43 -177 131 -225 142 -77 320 -3 365 153 31 107 -15 228 -110 287 -42 25
-61 30 -125 33 -58 2 -85 -2 -116 -17z m178 -157 c54 -54 39 -142 -29 -170
-47 -20 -87 -11 -119 28 -59 70 -13 168 78 168 34 0 50 -6 70 -26z"/>
<path d="M2441 1864 c-136 -68 -180 -249 -91 -373 116 -159 360 -135 441 44
26 56 25 156 -2 211 -23 49 -86 110 -135 130 -56 24 -152 18 -213 -12z m190
-153 c55 -56 26 -159 -50 -176 -69 -15 -140 52 -127 120 16 83 117 115 177 56z"/>
<path d="M3225 1869 c-117 -58 -171 -185 -133 -313 19 -63 100 -140 167 -160
67 -20 84 -20 147 -1 170 50 237 256 131 397 -67 90 -214 126 -312 77z m171
-144 c51 -35 55 -127 8 -164 -75 -59 -174 -12 -174 82 0 56 43 97 102 97 24 0
53 -7 64 -15z"/>
<path d="M4005 1871 c-51 -24 -109 -84 -131 -136 -9 -21 -16 -64 -16 -95 0
-99 46 -177 133 -225 167 -90 371 30 373 220 2 106 -60 199 -159 241 -49 20
-151 18 -200 -5z m173 -156 c58 -48 45 -137 -24 -170 -43 -20 -83 -13 -117 21
-31 31 -39 70 -22 110 27 66 108 85 163 39z"/>
</g>
</svg>
