<?xml version="1.0" standalone="no"?>
<!DOCTYPE svg PUBLIC "-//W3C//DTD SVG 20010904//EN"
 "http://www.w3.org/TR/2001/REC-SVG-20010904/DTD/svg10.dtd">
<svg version="1.0" xmlns="http://www.w3.org/2000/svg"
 width="512.000000pt" height="512.000000pt" viewBox="0 0 512.000000 512.000000"
 preserveAspectRatio="xMidYMid meet">

<g transform="translate(0.000000,512.000000) scale(0.100000,-0.100000)"
fill=" #ea580c" stroke="none">
<path d="M4535 5095 c-17 -16 -25 -35 -25 -57 0 -56 -29 -150 -62 -201 -61
-94 -159 -153 -278 -166 -84 -9 -110 -28 -110 -81 0 -44 33 -80 73 -80 43 0
129 -21 170 -42 53 -27 123 -93 154 -146 28 -47 53 -136 53 -189 0 -54 68 -91
119 -63 23 12 38 50 46 119 19 164 162 300 335 318 94 9 129 50 99 117 -14 29
-45 42 -119 50 -74 8 -168 55 -220 112 -55 60 -88 134 -99 225 -8 57 -15 78
-31 91 -32 26 -76 23 -105 -7z m65 -353 c0 -10 88 -103 123 -129 l27 -21 -82
-84 -83 -83 -30 39 c-17 22 -52 58 -80 80 l-50 41 80 81 c78 79 95 93 95 76z"/>
<path d="M2297 4865 c-530 -67 -976 -280 -1351 -645 -229 -223 -395 -462 -515
-743 -253 -588 -253 -1246 0 -1835 200 -465 564 -866 1014 -1115 527 -291
1167 -365 1740 -200 430 123 795 349 1093 677 386 424 600 978 602 1551 1 501
-161 990 -461 1390 -368 492 -903 813 -1514 910 -140 22 -471 28 -608 10z
m618 -174 c757 -132 1372 -631 1655 -1340 197 -495 199 -1069 5 -1567 -421
-1081 -1602 -1637 -2700 -1270 -647 216 -1152 725 -1364 1372 -148 452 -148
896 0 1348 86 263 224 509 406 726 301 358 742 618 1208 715 239 50 558 56
790 16z"/>
<path d="M2336 4225 c-606 -87 -1102 -474 -1334 -1041 -83 -203 -116 -382
-116 -624 0 -242 33 -421 116 -624 293 -715 1015 -1140 1771 -1041 378 50 706
211 972 479 252 253 405 545 472 899 24 129 24 446 0 574 -132 699 -652 1227
-1343 1363 -142 28 -398 35 -538 15z m504 -170 c308 -60 564 -197 791 -424
225 -226 353 -461 421 -775 32 -146 32 -446 0 -592 -44 -206 -118 -382 -233
-555 -84 -126 -282 -324 -408 -408 -176 -116 -383 -201 -584 -238 -129 -24
-409 -24 -532 0 -640 126 -1108 595 -1231 1232 -25 129 -25 396 0 530 72 384
280 719 595 955 212 160 442 249 756 294 64 9 344 -3 425 -19z"/>
<path d="M1881 3664 c-177 -48 -319 -199 -352 -378 -6 -34 -9 -146 -7 -270 3
-204 4 -213 30 -268 32 -68 89 -126 157 -157 l51 -24 0 -540 c0 -395 3 -551
12 -581 16 -55 99 -138 154 -154 90 -26 174 -6 241 60 74 73 73 63 73 673 l0
541 52 24 c64 29 126 89 158 155 24 48 25 59 28 273 4 251 -3 299 -54 400 -97
196 -333 303 -543 246z m254 -175 c63 -30 124 -90 156 -154 23 -49 24 -56 24
-282 0 -218 -1 -233 -21 -259 -33 -44 -66 -64 -124 -73 -97 -15 -90 33 -90
-643 l0 -589 -25 -24 c-15 -16 -36 -25 -55 -25 -19 0 -40 9 -55 25 l-25 24 0
589 c0 675 7 628 -89 643 -63 10 -111 44 -135 94 -15 32 -17 64 -14 253 l3
217 36 65 c40 73 104 128 178 154 65 23 171 16 236 -15z"/>
<path d="M2745 3655 l-25 -24 0 -392 c0 -342 2 -395 16 -426 20 -41 69 -81
112 -89 l31 -6 3 -632 c3 -630 3 -631 25 -672 77 -145 266 -177 378 -66 75 75
70 26 73 733 l3 637 34 6 c43 8 94 50 111 93 11 25 14 116 14 423 l0 391 -25
24 c-29 30 -74 32 -106 6 -24 -19 -24 -22 -27 -240 l-3 -221 -80 0 -79 0 0
215 c0 216 0 216 -25 240 -15 16 -36 25 -55 25 -19 0 -40 -9 -55 -25 -25 -24
-25 -24 -25 -240 l0 -215 -80 0 -80 0 0 215 c0 216 0 216 -25 240 -15 16 -36
25 -55 25 -19 0 -40 -9 -55 -25z m615 -695 l0 -80 -54 0 c-38 0 -61 -6 -77
-19 l-24 -19 -5 -682 -5 -682 -24 -19 c-30 -24 -72 -24 -102 0 l-24 19 -5 682
-5 682 -24 19 c-16 13 -39 19 -77 19 l-54 0 0 80 0 80 240 0 240 0 0 -80z"/>
<path d="M480 1040 c-21 -21 -25 -36 -34 -114 -20 -170 -187 -314 -364 -316
-68 0 -106 -80 -62 -128 22 -23 35 -27 114 -36 155 -18 296 -161 312 -316 8
-74 21 -105 50 -119 68 -31 101 -2 120 107 8 46 26 106 40 134 55 108 168 183
296 197 81 9 108 30 108 85 0 47 -33 72 -102 80 -99 11 -166 42 -234 110 -68
68 -99 135 -110 234 -8 70 -33 102 -81 102 -20 0 -41 -8 -53 -20z m174 -473
l45 -34 -55 -48 c-31 -26 -68 -65 -84 -86 l-27 -38 -32 44 c-24 34 -104 109
-129 121 -1 0 35 39 80 85 l83 84 37 -47 c21 -26 58 -62 82 -81z"/>
</g>
</svg>
